<svg width="128" height="128" viewBox="0 0 128 128" fill="none" xmlns="http://www.w3.org/2000/svg">
<path fill-rule="evenodd" clip-rule="evenodd" d="M127.999 28.4497C127.999 35.995 125.002 43.2314 119.668 48.5667C114.334 53.902 107.099 56.8994 99.5555 56.8994C92.0116 56.8994 84.7772 53.902 79.443 48.5667C74.1089 43.2314 71.1121 35.995 71.1121 28.4497C71.1121 20.9044 74.1089 13.6681 79.443 8.33273C84.7772 2.99737 92.0116 0 99.5555 0C107.099 0 114.334 2.99737 119.668 8.33273C125.002 13.6681 127.999 20.9044 127.999 28.4497ZM114.78 31.9526C114.568 32.871 114 33.6677 113.202 34.1678C112.404 34.6679 111.438 34.8304 110.52 34.6197L86.9978 29.2143C86.0784 29.003 85.2805 28.4351 84.7798 27.6355C84.279 26.8358 84.1165 25.87 84.3277 24.9504C84.5389 24.0308 85.1067 23.2328 85.9061 22.732C86.7055 22.2311 87.6712 22.0684 88.5906 22.2797L112.113 27.6886C112.568 27.7935 112.998 27.987 113.378 28.258C113.759 28.529 114.082 28.8722 114.33 29.2682C114.577 29.6641 114.744 30.105 114.821 30.5656C114.898 31.0262 114.885 31.4975 114.78 31.9526Z" fill="#60A5FA"/>
<path d="M38.324 11.54C36.0236 6.09189 28.3226 5.54424 25.233 10.6048L1.04184 50.196C-1.74917 54.7622 1.36894 60.5944 6.81229 60.9821L49.001 63.9907C54.4407 64.3818 58.4015 59.0546 56.3252 54.1399L38.324 11.54Z" fill="#60A5FA"/>
<path fill-rule="evenodd" clip-rule="evenodd" d="M104.48 107.967C109.608 105.575 113.575 101.244 115.511 95.927C117.446 90.609 117.19 84.7402 114.799 79.6112C112.408 74.4823 108.078 70.5134 102.762 68.5777C97.4452 66.6419 91.578 66.8979 86.4502 69.2893L47.7814 87.3194C42.6532 89.7107 38.6847 94.0419 36.749 99.3602C34.8134 104.678 35.0691 110.547 37.46 115.677C39.8509 120.806 44.181 124.775 49.4979 126.711C54.8147 128.648 60.6827 128.392 65.811 126L104.48 107.967ZM85.1311 109.14L101.475 101.52C104.856 99.9017 107.461 97.0145 108.725 93.4858C109.989 89.9576 109.81 86.0727 108.226 82.6757C106.642 79.2788 103.782 76.6444 100.267 75.3451C96.7516 74.0457 92.8667 74.1865 89.4546 75.7367L73.1102 83.3577L85.1311 109.14Z" fill="#60A5FA"/>
</svg>
